<?xml version="1.0" encoding="utf-8"?>
<!-- Generator: Adobe Illustrator 20.1.0, SVG Export Plug-In . SVG Version: 6.00 Build 0)  -->
<svg version="1.1" xmlns="http://www.w3.org/2000/svg" xmlns:xlink="http://www.w3.org/1999/xlink" x="0px" y="0px"
	 viewBox="0 0 321.2 288.3" style="enable-background:new 0 0 321.2 288.3;" xml:space="preserve">
<style type="text/css">
	.st0{fill:#0090FF;}
	.st1{fill:#FFFFFF;}
	.st2{fill:none;stroke:#FFFFFF;stroke-width:0.7;stroke-linecap:square;stroke-miterlimit:10;}
	.st3{fill:none;stroke:#FFFFFF;stroke-width:0.7;stroke-linecap:square;stroke-miterlimit:10;stroke-dasharray:0.8607,0.8607;}
	.st4{fill:none;stroke:#FFFFFF;stroke-width:0.7;stroke-linecap:square;stroke-miterlimit:10;stroke-dasharray:1.0133,1.0133;}
	.st5{fill:none;stroke:#FFFFFF;stroke-width:0.7;stroke-linecap:square;stroke-miterlimit:10;stroke-dasharray:1.0609,1.0609;}
	.st6{fill:none;stroke:#FFFFFF;stroke-width:0.7;stroke-linecap:square;stroke-miterlimit:10;stroke-dasharray:0.9957,0.9957;}
	.st7{fill:none;stroke:#FFFFFF;stroke-width:0.7;stroke-linecap:square;stroke-miterlimit:10;stroke-dasharray:1.0782,1.0782;}
	.st8{fill:none;stroke:#FFFFFF;stroke-width:0.7;stroke-linecap:square;stroke-miterlimit:10;stroke-dasharray:1.1826,1.1826;}
	.st9{fill:none;stroke:#FFFFFF;stroke-width:0.7;stroke-linecap:square;stroke-miterlimit:10;stroke-dasharray:0.9803,0.9803;}
	.st10{fill:none;stroke:#FFFFFF;stroke-width:0.7;stroke-linecap:square;stroke-miterlimit:10;stroke-dasharray:0.9548,0.9548;}
	.st11{fill:none;stroke:#FFFFFF;stroke-width:0.7;stroke-linecap:square;stroke-miterlimit:10;stroke-dasharray:1.0008,1.0008;}
	.st12{fill:none;stroke:#FFFFFF;stroke-width:0.7;stroke-linecap:square;stroke-miterlimit:10;stroke-dasharray:0.9932,0.9932;}
	.st13{fill:none;stroke:#FFFFFF;stroke-width:0.7;stroke-linecap:square;stroke-miterlimit:10;stroke-dasharray:1;}
</style>
<g id="Layer_1">
	<rect x="-298.5" y="-125.3" class="st0" width="960" height="560"/>
</g>
<g id="VENIKOM">
	<g id="noge">
	</g>
	<g id="kokoshka">
	</g>
	<g id="veni">
	</g>
	<g id="K__M">
	</g>
	<g id="јајце">
		<g>
			<g>
				<path class="st1" d="M83.3,138c0,6.1-2.6,10.9-7.7,14.6c-5.2,3.6-11.6,5.5-19.3,5.5H19.8v-70h33c7.6,0.2,13.8,2.1,18.8,5.8
					c5,3.6,7.4,8.4,7.4,14.4c0,5.3-2.1,9.8-6.3,13.5C79.8,125.4,83.3,130.9,83.3,138z M66.4,108.2c0-3.1-1.4-5.4-4.2-7.1
					c-2.8-1.7-6.3-2.5-10.5-2.5H32.5v19.2h19.1c4.3,0,7.8-0.8,10.6-2.5C65,113.7,66.4,111.3,66.4,108.2z M32.5,147.6h23.3
					c4.2,0,7.7-0.8,10.5-2.5c2.8-1.7,4.2-4,4.2-7.1c0-3.1-1.4-5.5-4.2-7.2c-2.8-1.7-6.3-2.5-10.5-2.5H32.5V147.6z"/>
				<path class="st1" d="M147.4,88.1v10.5h-46.6v19.2h38.1v10.5h-38.1v19.3h46.6v10.5H88.1v-70H147.4z"/>
				<path class="st1" d="M207.2,117.8V88.1h12.7v70h-12.7v-29.8h-42.3v29.8h-12.7v-70h12.7v29.7H207.2z"/>
				<path class="st1" d="M240.5,141.3l50.8-53.2H304v70h-12.7v-53.2l-50.8,53.2h-12.7v-70h12.7V141.3z"/>
			</g>
			<g>
				<g>
					<g>
						<path class="st2" d="M180.9,235c0-0.2,0.1-0.3,0.1-0.5l-0.5-0.1"/>
						<line class="st3" x1="179.7" y1="234.3" x2="176.7" y2="233.9"/>
						<path class="st2" d="M176.3,233.8l-0.5-0.1c0,0.2,0,0.3-0.1,0.5"/>
						<path class="st4" d="M175.6,235.3c-0.3,2.4-0.6,4.3-0.8,5.6c-1.3,9.6-1.4,13.8-4.1,18.8c-1.7,3-2.8,3.6-3.4,3.9
							c-3.2,1.3-5.8-1.6-9.3-1.1c-1.7,0.3-3.9,1.5-6.2,5.3"/>
						<path class="st2" d="M151.6,268.2c-0.1,0.1-0.2,0.3-0.2,0.4C151.5,268.5,151.6,268.4,151.6,268.2"/>
						<path class="st5" d="M152.4,267.4c1.1-1.1,2.6-1.6,4.1-1.3c2.7,0.4,4.7,3.5,4,5.7"/>
						<path class="st2" d="M160.3,272.3c-0.1,0.2-0.2,0.3-0.3,0.4c0.1-0.1,0.3-0.2,0.4-0.3"/>
						<path class="st6" d="M161.3,271.9c4.2-2.9,7.4-7.1,13.1-7.7"/>
						<path class="st2" d="M174.9,264.2c0.2,0,0.3,0,0.5,0c0.1,0.1,0.2,0.3,0.3,0.4"/>
						<path class="st7" d="M176.3,265.4c0.8,1.1,1.3,1.7,2.3,3"/>
						<path class="st2" d="M178.9,268.9c0.1,0.1,0.2,0.3,0.3,0.4c0,0.2-0.1,0.3-0.1,0.5"/>
						<path class="st8" d="M178.7,270.9c-0.2,0.6-0.4,1.1-0.5,1.7"/>
						<path class="st2" d="M178,273.1c0,0.2-0.1,0.3-0.1,0.5c0.1-0.1,0.2-0.3,0.3-0.4"/>
						<path class="st9" d="M178.8,272.4c2.1-3,2.3-5.1,1.9-6.6c-0.5-2.2-2.2-2.9-3.2-5.5c-1-2.6-0.5-4.9-0.1-6.9
							c0.9-4.8,2-10.8,3.4-17.9"/>
					</g>
				</g>
				<g>
					<g>
						<path class="st2" d="M185.6,274.6c0,0.2,0,0.3,0,0.5C185.5,274.9,185.5,274.8,185.6,274.6"/>
						<path class="st10" d="M185.7,273.7c0.5-1.9,1.9-3.4,3.7-3.8c2.8-0.6,5.9,1.8,5.9,4.2c0,1.2-0.8,2.1-1.4,2.7"/>
						<path class="st2" d="M193.6,277.1c-0.2,0.1-0.3,0.2-0.4,0.3c0.1-0.1,0.1-0.2,0.3-0.4"/>
						<path class="st11" d="M194,276.1c2.2-3.6,8.3-13.4,12.6-16c0.4-0.3,0.9-0.4,1.2-0.1c1.2,1.1,2.4,2.1,3.6,3.2
							c0.2,0.1,0.3,0.4,0.3,0.6c0.1,1.4,0.2,2.8,0.3,4.2"/>
						<path class="st2" d="M212,268.5c0,0.2,0,0.3,0,0.5c0.1-0.2,0.1-0.3,0.1-0.5"/>
						<path class="st12" d="M212.5,267.5c0.9-3.6,0.2-5.6-0.6-6.8c-1.3-1.8-3.1-1.9-5-3.9c-1.8-2-2.2-4.3-2.6-6.4
							c-0.9-4.8-2.1-10.8-3.5-18c-0.1-0.5-0.6-0.8-1-0.7l-3.5,0.8c-0.5,0.1-0.7,0.6-0.6,1c0.6,2.6,1.1,4.7,1.5,6.2
							c2.4,9.4,3.8,13.4,3.1,18.9c-0.4,3.4-1.3,4.4-1.7,4.8c-2.4,2.4-6,0.6-9,2.4c-1.6,1-3.3,3.1-3.9,8.2"/>
					</g>
				</g>
				<path class="st13" d="M201.4,266.7"/>
				<path class="st13" d="M55.1,96.4c-3.6-20.8-3-47.1,13.4-62.6c3.6-3.4,7.7-6.2,12.1-8.3c-9.2-1.7-9.2-10.3-3.9-16.3
					c3.9-5.5,9.9-4.5,13.9,0.5c1,0,3-2,4-2c4-2,3,4,4.8,6.5c0.9-1.2-0.5-1.2,0,0c1.2-1.5,2.2-5.5,4.2-2.5c6,4,6,13,10.5,18.8
					c-1.1,0-3.2-4.9,0,0c-3.5,0.2-7.5-0.8-10.5,2.2c7,1,13,5,16.6,10.9c-3.1-1.3-1.9-3.5,0,0c-2.6-0.9-6.6-1.9-9.6,0.1
					c-13,12-2,31,4.2,44.3"/>
				<path class="st13" d="M104.1,31.5c-1.1-1.9-2.3-3.8-3.4-5.7C98.3,25,95,24.1,91,23.9c-5.7-0.2-10.3,1-13.1,2"/>
				<circle class="st13" cx="87.5" cy="35" r="3.5"/>
				<path class="st13" d="M75.7,39.1c0,0.5,0,3.8,2.6,6.1c3.3,3,7.8,1.8,8,1.8c2.5,0.2,5,0.4,7.5,0.6c-3.3,4-3.4,9.4-0.6,12.6
					c2.8,3.4,7.5,3,8,3"/>
				<path class="st13" d="M207.7,89.8c-0.1-3.6,0.3-9.6,3.2-16.3c3.9-9.2,10.3-14.2,14.8-17.7c6.6-5,12.1-9.2,17.3-7.3
					c5.5,2,7.2,9.3,7.5,10.5c1.6,6.9-1.5,12.5-2.3,13.8c2.4-0.1,4.6,1.4,5.3,3.5c0.9,2.4-0.2,5.3-2.7,6.7c-0.2,1.2-0.3,3.1,0.3,5.2
					c0.9,2.8,2.4,3.6,2.7,5.5c0.2,1.4-0.3,3.6-3.8,6.7c0.9,2.3,2.7,8.2,1,15.3c-2.2,9.2-8.7,14.1-10.5,15.3"/>
				<g>
					<path class="st1" d="M142,167h14.5l-28.7,32.5l28.7,37.5H142l-22-28.8l-9,10V237h-10.5v-70H111v34.9L142,167z"/>
					<path class="st1" d="M293.6,167H304v70h-10.4v-47.3l-24.2,36.8h-6.9l-24.2-36.8V237h-10.4v-70h10.4l27.7,43.3L293.6,167z"/>
				</g>
				<path class="st1" d="M193.7,237.7c-3.2,0.7-9.3,1.6-16.5-0.4c-1.5-0.4-9-2.5-15.8-9.3c-2.8-2.8-6-6-7.5-11.1
					c-1.5-5.3-0.4-9.8,0.8-14.9c1.3-5.4,3.2-9.2,4.8-12.1c2-3.8,4.1-7.9,8.3-12c2.3-2.3,5.2-5.1,9.8-6.9c8.7-3.4,17.1-0.2,19.9,1
					c7.3,3.2,11.1,8.7,13.9,12.6c2.9,4.1,4.6,8.2,5.9,11c1.7,3.9,2.8,7.2,3.5,9.8c0.6,2.3,1.2,6.1,0.1,10.5
					c-1.7,7.4-7,11.7-10.1,14.3C204.2,235.4,197.5,237.1,193.7,237.7z"/>
			</g>
		</g>
	</g>
</g>
</svg>
