<svg id="Layer_1" data-name="Layer 1" xmlns="http://www.w3.org/2000/svg" viewBox="0 0 654.71 359.39"><defs><style>.cls-1{fill:#0078c9;}</style></defs><title>VENIKOM POCETNA LOGO 2 VERZIJA</title><path class="cls-1" d="M447.37,303.8a8.56,8.56,0,0,1-.1-1,250.38,250.38,0,0,0-18.86-86.52q-1.77-4.3-3.72-8.55a281.93,281.93,0,0,0-30.27-51c-12.38-16.71-27-31.56-45.64-42.82-11.34-6.87-23.32-11.86-37-13.06A12.91,12.91,0,0,1,309,100h-4.73c-4.13.94-8.31,1.76-12.39,2.82-18.55,4.87-33.68,14.88-47,27.28-20.6,19.25-36.27,41.62-48.57,66.06a263.56,263.56,0,0,0-24.57,73.05A211.27,211.27,0,0,0,169,324.84a163,163,0,0,0,13.43,53.05C194.86,405.46,214,428,242.1,443.51a125.16,125.16,0,0,0,51.44,15.33,155.44,155.44,0,0,0,32.19-.61A112.74,112.74,0,0,0,348,453l2-.7c1.74-.63,3.45-1.28,5.14-1.94,1.9-.74,3.77-1.52,5.59-2.33a147.77,147.77,0,0,0,22-11.85q5.34-3.5,10.21-7.38,2.53-2,4.95-4.14,4-3.48,7.58-7.22a128.64,128.64,0,0,0,8.75-10,144,144,0,0,0,16.2-25.7q2.53-5.1,4.74-10.45,1.33-3.19,2.53-6.45,1.64-4.45,3.09-9.06a140.76,140.76,0,0,0,3.72-14.62c.12-.53.22-1.07.32-1.6a152.39,152.39,0,0,0,2.55-25.33,20.39,20.39,0,0,1,.92-4.08v-1.59Z" transform="translate(-168.26 -100)"/><path d="M444.51,341.18c.12-.53.22-1.07.32-1.6-.24.38-.47.75-.7,1.14Zm-6.8,23.68c-.9,2.1-1.71,4.28-2.53,6.45Q436.51,368.13,437.71,364.87Zm-47,63.8c-3.69-.81-7.85-1.49-10.77-3.69-12.59-9.51-24.91-19.44-37.13-29.48s-24.25-20.39-36.38-30.6c-.73-.62-1.54-1.14-2.31-1.71-.38.4-.74.81-1.11,1.22l27.85,27.13-.66,1c-2.28-1.26-4.58-2.49-6.84-3.8-11.76-6.8-24.12-12.73-35.16-20.64-22.11-15.83-30.94-39.11-31.81-66.44-.55-17.11,4-33,8.79-49.05,3.33-11.18,6.61-22.46,4.09-34.57,10.78-6.56,13-17.32,12.76-29.36-.83,1.8-1.6,3.61-2.48,5.38a92.47,92.47,0,0,1-4.7,9.3c-4.47,7-8.29,9.26-12.25,7-5.75-3.21-11.93-8.48-8.87-17.17,1-2.73.86-5.89,1.36-9.68l-8-3.16.95-.9c-.1-.27-.18-.53-.28-.8L238.8,181c-.22-.33-.43-.66-.64-1,2.08-1.91,4-4.08,6.28-5.65a49.29,49.29,0,0,1,6.78-3.5,85.14,85.14,0,0,1-8.27-4.23c-.87-.56-1.77-2.67-1.41-3.46,2.26-5,4.7-9.93,7.42-14.68,1.34-2.32,4.06-3.94,4.93-6.35,1.35-3.74,3.54-5.14,7-4.47,4.63.91,8,0,10.41-4.78.7-1.4,3.61-2.71,5-2.28s3.23,3.16,3.1,4.73a126.46,126.46,0,0,1-2.71,16.74c-.21,1-2.11,1.64-3.32,2.31-4.27,2.38-8.55,4.71-12.83,7.07l.58,1.13c4.57-1.32,9.11-2.77,13.72-3.95,8.34-2.11,15.59.18,22.71,5.1,16.8,11.62,24.56,29.5,31.92,47.84,5.31,13.23,10.39,26.62,16.44,39.49,6.16,13.07,17.42,18.19,30.85,16.63,12.09-1.4,24-4.35,36-6.46,4.73-.83,9.53-1.25,14.5-3l-16.11-2.35c1.69-2.84,3.89-5.67,5.19-8.89,4.11-10.19,8.09-20.45,12.07-30.69q-1.77-4.3-3.72-8.55c-4.82,12.6-10.22,25-16,37.15-3.71,7.75-8.75,15-19,14.18-2.32-.18-4.7,1-7.1,1.26-10.6,1.11-20.86.4-28-9.26a73.2,73.2,0,0,1-8.55-15c-6.36-15.16-11.79-30.75-18.41-45.77-9-20.5-23.8-34-45.92-37.78a36.16,36.16,0,0,0,1.75-5.37c1.35-7.44,2.76-15-2.24-21.67-3.92-5.24-10.29-5.57-12.7-.11-2.87,6.48-6.84,8.1-13,6.49-3.11-.81-4.63.79-5.18,4.19-.3,1.9-1.57,4.62-3,5.16-5.14,1.93-6.38,6.06-7.23,10.86a25.1,25.1,0,0,1-2.07,6.12c-3.89,8.31-3.9,8.41,3.61,13.6-5.16,3.58-8.32,8.24-7.63,14.65l17.47-2c-1.22,5.29-1.59,9.28-3.06,12.78-1.68,4-1.26,7.17,1.49,10.06,2.25,2.36,4.47,5.35,7.29,6.43,7,2.67,7.13,8.1,6.4,14.13a138.31,138.31,0,0,1-2.35,14.82c-2.43,10.38-5.41,20.62-7.8,31-4.59,20-4.58,39.89,2.08,59.39,8.23,24.12,25.24,39.81,46.57,51.08,13.71,7.24,27.44,14.44,42,22.09-2.19,9.34-4.25,18.4-6.48,27.41-.95,3.86-3.56,5.69-7.44,5.86-6.57.3-13.14.81-19.71,1.2-3.58.21-6.88.89-8.57,4.87,4.78.49,9.25.95,13.72,1.42-2.75.81-5.53.57-8.26.86-5.38.57-10.86.92-16,2.36a6.27,6.27,0,0,0-4.71,7.73c4-.52,7.49-1.11,11-1.37,3.67-.28,7.4,0,11.06-.4,6.61-.72,13.2-1.75,20.54-2.75a23.28,23.28,0,0,0-3.41,4.75L350,452.34a18.37,18.37,0,0,0,.6-5.47l4.54,3.52,5.59-2.33a9.58,9.58,0,0,0-2.47-2.5c-6.5-5-5.25-10.81-3.23-17.34.89-2.87.72-6.11.92-9.19.11-1.73,0-3.46,0-5.2l1.31-1.08q12.59,10.26,25.14,20.58a2.22,2.22,0,0,1,.55,1.79c-.09.36-.16.73-.24,1.09q5.34-3.5,10.21-7.38A7.55,7.55,0,0,1,390.67,428.67ZM352.13,416c-2.26,9.34-3.84,18.88-5.58,28.37-1.47,8.07-6.85,10.86-14.86,12,2.11-2.09,3.55-3.52,5.87-5.83H317l-.07-.47,14-3.57-3.88-2.92c.41-.26.66-.52.86-.5,10.72,1.14,12.54,0,15.06-11.2,1.39-6.15,2.08-12.47,3.1-18.7.24-1.46.56-2.89.87-4.5C351.16,409.51,353.37,410.86,352.13,416Zm55.69-14.28c1.57-6.05,2.79-10.75,4.28-16.51-6.44,5.75-8.38,12.64-9.88,19.78-1.3,6.18-2.54,12.38-4,18.54a9.92,9.92,0,0,1-.34,1.15q4-3.48,7.58-7.22l.22-.67c.62-1.91,2.28-3.58,3.79-5s3.15-2.92,4.74-4.35a144,144,0,0,0,16.2-25.7C425.38,390.21,417.71,396.53,407.82,401.73Zm40.49-93.16c-1.07-2.16-2.18-4.31-3.29-6.46.8.56,1.58,1.12,2.36,1.69Z" transform="translate(-168.26 -100)"/><path d="M433.95,329.71c-14.47-3.25-23.64-13-33.41-22A67.14,67.14,0,0,0,388.37,299a43,43,0,0,1-16.12-15.45,16.14,16.14,0,0,1-1.88-5.56c6.17,9.49,15.69,14,24.71,19.39,4.82,2.89,8.73,7.38,13.38,10.64A228.23,228.23,0,0,0,430,321.92c3.51,1.92,8,1.89,12.59,2.86.69,5.16-2,9.4-5.47,13.16-9.07,9.87-20.6,15.53-33,18.76-8.29,2.17-17,2.66-25.64,3.3-7.28.55-14.49,1.89-21.93-.64-18.19-6.17-33.67-16.21-45.6-31.91-1-1.28-1.62-2.82-2.72-3.52,10.45,6.82,20.66,14.09,31.42,20.32a66.76,66.76,0,0,0,33.42,9.5c12.25.15,24.17,0,35.37-5,7.27-3.22,13.9-8.12,20.59-12.62C430.93,334.93,432,332.39,433.95,329.71Z" transform="translate(-168.26 -100)"/><path d="M279.95,177.15c-10.3,9-10.93,9-19.29.21C267.7,167.35,271.42,167.31,279.95,177.15Z" transform="translate(-168.26 -100)"/><path class="cls-1" d="M720.3,326.67c0,28.54-17.43,43.66-38.69,43.66-22,0-37.45-17-37.45-42.07,0-26.32,16.44-43.54,38.69-43.54C705.59,284.73,720.3,302.07,720.3,326.67ZM655.65,328c0,17.71,9.64,33.58,26.58,33.58s26.7-15.62,26.7-34.44c0-16.48-8.65-33.7-26.58-33.7S655.65,309.82,655.65,328Z" transform="translate(-168.26 -100)"/><path class="cls-1" d="M554.83,249.83q0,11.06-9.4,17.68t-23.51,6.74H477.69V189.2H517.8q13.81.36,22.85,7t9,17.44A21,21,0,0,1,542,230Q554.83,236.83,554.83,249.83Zm-20.57-36.21a9.53,9.53,0,0,0-5.14-8.63,24.79,24.79,0,0,0-12.78-3H493.12v23.33h23.22q7.79,0,12.86-3A9.51,9.51,0,0,0,534.26,213.62Zm-41.14,47.87h28.36a24.78,24.78,0,0,0,12.78-3,9.52,9.52,0,0,0,5.14-8.63,9.62,9.62,0,0,0-5.14-8.75,24.79,24.79,0,0,0-12.78-3H493.12Z" transform="translate(-168.26 -100)"/><path class="cls-1" d="M632.7,189.2V202H576.13v23.33h46.28V238H576.13v23.45H632.7v12.76h-72V189.2Z" transform="translate(-168.26 -100)"/><path class="cls-1" d="M705.43,225.28V189.2h15.43v85.06H705.43V238H654v36.21H638.58V189.2H654v36.09Z" transform="translate(-168.26 -100)"/><path class="cls-1" d="M745.84,253.84l61.71-64.64H823v85.06H807.55V209.61l-61.71,64.64H730.41V189.2h15.43Z" transform="translate(-168.26 -100)"/><path class="cls-1" d="M626.13,285.14h17.62l-34.87,39.49,34.87,45.57H626.13l-26.73-35-10.94,12.15V370.2H575.7V285.14h12.76v42.41Z" transform="translate(-168.26 -100)"/><path class="cls-1" d="M810.35,285.14H823V370.2H810.35V312.72L780.9,357.44h-8.42L743,312.72V370.2H730.41V285.14H743l33.66,52.61Z" transform="translate(-168.26 -100)"/></svg>